HIERARCHY
ROOT Hips
{
	OFFSET 0.00000 0.00000 0.00000
	CHANNELS 6 Xposition Yposition Zposition Zrotation Yrotation Xrotation 
	JOINT LHipJoint
	{
		OFFSET 0 0 0
		CHANNELS 3 Zrotation Yrotation Xrotation
		JOINT LeftUpLeg
		{
			OFFSET 1.74857 -1.85566 0.69197
			CHANNELS 3 Zrotation Yrotation Xrotation
			JOINT LeftLeg
			{
				OFFSET 2.40003 -6.59403 0.00000
				CHANNELS 3 Zrotation Yrotation Xrotation
				JOINT LeftFoot
				{
					OFFSET 2.82169 -7.75254 0.00000
					CHANNELS 3 Zrotation Yrotation Xrotation
					JOINT LeftToeBase
					{
						OFFSET 0.16466 -0.45240 2.26890
						CHANNELS 3 Zrotation Yrotation Xrotation
						End Site
						{
							OFFSET 0.00000 -0.00000 1.16486
						}
					}
				}
			}
		}
	}
	JOINT RHipJoint
	{
		OFFSET 0 0 0
		CHANNELS 3 Zrotation Yrotation Xrotation
		JOINT RightUpLeg
		{
			OFFSET -1.64169 -1.85566 0.69197
			CHANNELS 3 Zrotation Yrotation Xrotation
			JOINT RightLeg
			{
				OFFSET -2.41814 -6.64379 0.00000
				CHANNELS 3 Zrotation Yrotation Xrotation
				JOINT RightFoot
				{
					OFFSET -2.80588 -7.70911 0.00000
					CHANNELS 3 Zrotation Yrotation Xrotation
					JOINT RightToeBase
					{
						OFFSET -0.19098 -0.52472 2.25401
						CHANNELS 3 Zrotation Yrotation Xrotation
						End Site
						{
							OFFSET -0.00000 -0.00000 1.16333
						}
					}
				}
			}
		}
	}
	JOINT LowerBack
	{
		OFFSET 0 0 0
		CHANNELS 3 Zrotation Yrotation Xrotation
		JOINT Spine
		{
			OFFSET -0.02828 2.14690 -0.11061
			CHANNELS 3 Zrotation Yrotation Xrotation
			JOINT Spine1
			{
				OFFSET -0.00167 2.15299 0.00759
				CHANNELS 3 Zrotation Yrotation Xrotation
				JOINT Neck
				{
					OFFSET 0 0 0
					CHANNELS 3 Zrotation Yrotation Xrotation
					JOINT Neck1
					{
						OFFSET -0.09296 1.90118 0.07197
						CHANNELS 3 Zrotation Yrotation Xrotation
						JOINT Head
						{
							OFFSET 0.08490 1.89526 -0.24604
							CHANNELS 3 Zrotation Yrotation Xrotation
							End Site
							{
								OFFSET 0.03186 1.92109 -0.09483
							}
						}
					}
				}
				JOINT LeftShoulder
				{
					OFFSET 0 0 0
					CHANNELS 3 Zrotation Yrotation Xrotation
					JOINT LeftArm
					{
						OFFSET 3.21569 1.44644 -0.03720
						CHANNELS 3 Zrotation Yrotation Xrotation
						JOINT LeftForeArm
						{
							OFFSET 5.47651 -0.00000 -0.00000
							CHANNELS 3 Zrotation Yrotation Xrotation
							JOINT LeftHand
							{
								OFFSET 3.09058 -0.00000 -0.00000
								CHANNELS 3 Zrotation Yrotation Xrotation
								JOINT LeftFingerBase
								{
									OFFSET 0 0 0
									CHANNELS 3 Zrotation Yrotation Xrotation
									JOINT LeftHandIndex1
									{
										OFFSET 0.77161 -0.00000 -0.00000
										CHANNELS 3 Zrotation Yrotation Xrotation
										End Site
										{
											OFFSET 0.62209 -0.00000 -0.00000
										}
									}
								}
								JOINT LThumb
								{
									OFFSET 0 0 0
									CHANNELS 3 Zrotation Yrotation Xrotation
									End Site
									{
										OFFSET 0.63159 -0.00000 0.63159
									}
								}
							}
						}
					}
				}
				JOINT RightShoulder
				{
					OFFSET 0 0 0
					CHANNELS 3 Zrotation Yrotation Xrotation
					JOINT RightArm
					{
						OFFSET -3.38693 1.28904 -0.07093
						CHANNELS 3 Zrotation Yrotation Xrotation
						JOINT RightForeArm
						{
							OFFSET -5.14182 -0.00000 -0.00000
							CHANNELS 3 Zrotation Yrotation Xrotation
							JOINT RightHand
							{
								OFFSET -3.35565 -0.00000 -0.00000
								CHANNELS 3 Zrotation Yrotation Xrotation
								JOINT RightFingerBase
								{
									OFFSET 0 0 0
									CHANNELS 3 Zrotation Yrotation Xrotation
									JOINT RightHandIndex1
									{
										OFFSET -0.80104 -0.00000 -0.00000
										CHANNELS 3 Zrotation Yrotation Xrotation
										End Site
										{
											OFFSET -0.64582 -0.00000 -0.00000
										}
									}
								}
								JOINT RThumb
								{
									OFFSET 0 0 0
									CHANNELS 3 Zrotation Yrotation Xrotation
									End Site
									{
										OFFSET -0.65568 -0.00000 0.65568
									}
								}
							}
						}
					}
				}
			}
		}
	}
}
MOTION
Frames: 16
Frame Time: .0083333
-0.7332 18.125 -0.6584 0 0 0 0 0 0 -21 0 0 0 0 0 0 0 0 0 0 0 0 0 0 21 0 0 0 0 0 0 0 0 0 0 0 0 0 0 0 0 0 0 0 0 0 0 -16 0 0 21 0 0 11 0 0 0 -8 0 0 0 0 0 0 0 0 0 0 0 0 0 0 0 0 0 0 0 0 8 0 0 0 0 0 0 0 0 0 0 0 0 0 0 0 0 0
-0.7332 18.1250 -0.6584 3.4329 -10.1623 0.0859 0.0000 0.0000 0.0000 -19.7276 0.7636 1.5962 0.1908 2.8128 7.7580 -0.2587 15.6315 -19.3251 0.4360 -4.2370 -11.7444 0.0000 0.0000 0.0000 18.0503 7.9369 -6.6635 -1.4149 -7.5230 21.2743 -0.2924 -9.0632 -17.2231 -0.4047 4.0839 -11.3129 -0.6221 0.7297 5.6451 0.5056 0.9269 5.3145 0.8354 0.4291 2.2910 -4.9956 -4.9103 -3.8293 -0.5555 -6.2018 6.6634 0.4422 -3.2241 2.9482 -0.0000 0.0000 0.0000 -67.6058 20.0855 65.0581 67.7751 -58.0488 -40.8788 -0.0000 0.0000 -74.7157 27.7611 42.3816 19.5352 -7.1250 0.0000 -0.0000 -17.5490 75.2816 -12.6004 -0.0000 0.0000 0.0000 81.7408 -28.9724 38.2939 -64.3206 57.3554 -37.9584 0.0000 -0.0000 -89.2601 -38.5886 8.0389 -6.3674 7.1250 -0.0000 -0.0000 -8.3747 -19.7921 -5.0985
-0.7449 18.1251 -0.6648 3.4351 -10.1795 0.0883 0.0000 0.0000 0.0000 -19.6837 0.7673 1.5588 0.1921 2.8225 7.7849 -0.2558 15.6272 -19.3541 0.4245 -4.1816 -11.5881 0.0000 0.0000 0.0000 18.1020 8.0080 -6.6677 -1.4158 -7.5253 21.2811 -0.2823 -9.1634 -17.2066 -0.4166 4.1429 -11.4789 -0.6885 0.7168 5.6519 0.5374 0.9067 5.3411 0.9062 0.4161 2.3138 -5.0268 -4.8033 -3.6610 -0.5467 -6.0683 6.5879 0.4614 -3.1571 2.8892 0.0000 0.0000 0.0000 -67.6417 19.5540 64.7817 68.6324 -58.2025 -41.6068 -0.0000 0.0000 -74.6052 27.3569 41.8761 19.0536 -7.1250 0.0000 -0.0000 -17.1616 74.6761 -12.0994 0.0000 0.0000 0.0000 81.9203 -28.5691 36.9490 -64.7207 57.4420 -38.2955 0.0000 -0.0000 -89.0739 -39.1959 9.2098 -7.4359 7.1250 -0.0000 -0.0000 -8.6203 -18.2395 -5.5524
-0.7567 18.1246 -0.6733 3.3471 -10.2226 0.1651 0.0000 0.0000 0.0000 -19.5339 0.7270 1.3500 0.2024 2.8965 7.9909 -0.2447 15.5866 -19.4228 0.4286 -4.2013 -11.6437 0.0000 0.0000 0.0000 18.2388 8.0902 -6.7397 -1.4128 -7.5177 21.2584 -0.2822 -9.1550 -17.1951 -0.4165 4.1427 -11.4784 -0.6741 0.6707 5.6241 0.5834 0.8453 5.3545 0.9480 0.3846 2.3440 -5.0589 -4.6689 -3.5865 -0.5458 -5.8913 6.5715 0.4766 -3.0697 2.8665 -0.0000 -0.0000 0.0000 -67.7090 18.9995 64.3959 69.5881 -58.3656 -42.4198 -0.0000 0.0000 -74.4901 27.1866 41.4636 18.7832 -7.1250 0.0000 -0.0000 -16.6484 74.2390 -11.5784 -0.0000 -0.0000 0.0000 81.9555 -28.1022 35.7864 -65.1770 57.5386 -38.6803 0.0000 -0.0000 -88.6805 -39.5696 10.3839 -8.4719 7.1250 -0.0000 -0.0000 -8.6900 -16.7048 -5.8942
-0.7679 18.1248 -0.6830 3.2565 -10.2589 0.2639 0.0000 0.0000 0.0000 -19.3893 0.7013 1.1700 0.2074 2.9325 8.0908 -0.2467 15.5768 -19.3824 0.4367 -4.2406 -11.7545 0.0000 0.0000 0.0000 18.3688 8.1563 -6.8549 -1.4119 -7.5154 21.2516 -0.2809 -9.1465 -17.1704 -0.4137 4.1286 -11.4388 -0.6347 0.6267 5.6017 0.6105 0.7878 5.3546 0.9562 0.3565 2.3580 -5.0158 -4.5459 -3.6235 -0.6103 -5.7223 6.6234 0.4539 -2.9878 2.8828 -0.0000 -0.0000 0.0000 -67.7161 18.4090 64.0872 70.6346 -58.5345 -43.3116 -0.0000 0.0000 -74.5370 27.6726 41.1660 19.0438 -7.1250 0.0000 -0.0000 -15.4046 74.1417 -10.6711 -0.0000 -0.0000 0.0000 81.9984 -27.5682 34.6302 -65.9484 57.6972 -39.3317 0.0000 -0.0000 -88.2309 -40.6594 11.3550 -9.5983 7.1250 -0.0000 -0.0000 -9.2605 -15.2827 -6.5799
-0.7765 18.1261 -0.6910 3.2243 -10.2161 0.3275 0.0000 0.0000 0.0000 -19.3300 0.6024 1.0210 0.2152 2.9863 8.2405 -0.2414 15.5459 -19.3966 0.4464 -4.2866 -11.8844 0.0000 0.0000 0.0000 18.4137 8.0611 -6.9687 -1.4091 -7.5083 21.2302 -0.2801 -9.1092 -17.1194 -0.4311 4.2137 -11.6785 -0.5791 0.5710 5.6010 0.5901 0.7159 5.3399 0.9064 0.3228 2.3454 -4.9702 -4.4481 -3.6617 -0.6920 -5.5844 6.7665 0.4228 -2.9232 2.9307 0.0000 0.0000 0.0000 -67.6056 17.7587 63.9334 71.7482 -58.7031 -44.2623 -0.0000 0.0000 -74.6354 28.1932 41.0824 19.4052 -7.1250 0.0000 -0.0000 -14.4819 74.2524 -10.0594 0.0000 0.0000 0.0000 82.0485 -27.0303 33.4556 -66.9260 57.8895 -40.1589 0.0000 -0.0000 -88.1514 -42.1078 11.8809 -10.5408 7.1250 -0.0000 -0.0000 -10.1252 -14.3197 -7.4253
-0.7860 18.1272 -0.6992 3.2223 -10.1501 0.3724 0.0000 0.0000 0.0000 -19.2945 0.4965 0.9211 0.2201 3.0199 8.3343 -0.2394 15.5417 -19.4133 0.4468 -4.2884 -11.8894 0.0000 0.0000 0.0000 18.4409 8.0041 -7.0448 -1.4076 -7.5043 21.2184 -0.2741 -9.1277 -17.0645 -0.4229 4.1739 -11.5663 -0.5847 0.5162 5.6082 0.5682 0.6432 5.3300 0.8894 0.2868 2.3328 -4.9249 -4.3537 -3.6082 -0.7344 -5.4603 6.8266 0.4069 -2.8629 2.9350 -0.0000 -0.0000 0.0000 -67.4901 17.0124 63.8666 72.7740 -58.8485 -45.1395 -0.0000 0.0000 -74.6682 28.4364 40.9047 19.5239 -7.1250 0.0000 -0.0000 -13.8139 74.1745 -9.5679 -0.0000 -0.0000 0.0000 81.9702 -26.4988 32.3695 -67.8110 58.0554 -40.9092 0.0000 -0.0000 -88.1478 -42.8083 12.3557 -11.2110 7.1250 -0.0000 -0.0000 -10.4938 -13.5538 -7.8783
-0.7944 18.1275 -0.7093 3.1346 -10.1488 0.4309 0.0000 0.0000 0.0000 -19.1565 0.4745 0.8606 0.2182 3.0068 8.2976 -0.2499 15.5932 -19.3700 0.4527 -4.3163 -11.9683 0.0000 0.0000 0.0000 18.5742 8.0823 -7.0991 -1.4072 -7.5033 21.2152 -0.2674 -9.1845 -17.0425 -0.4138 4.1291 -11.4401 -0.5148 0.4778 5.6008 0.5642 0.5944 5.3517 0.8481 0.2644 2.3611 -4.8905 -4.2488 -3.5150 -0.7112 -5.3296 6.7973 0.4164 -2.7958 2.9040 -0.0000 0.0000 0.0000 -67.4088 16.1690 63.8056 73.6020 -58.9592 -45.8485 -0.0000 0.0000 -74.7016 28.4193 40.4899 19.3597 -7.1250 0.0000 -0.0000 -13.1648 73.7789 -9.0028 -0.0000 0.0000 0.0000 81.7683 -25.9180 31.4270 -68.7566 58.2242 -41.7124 0.0000 -0.0000 -88.0432 -43.2413 13.0821 -12.0167 7.1250 -0.0000 -0.0000 -10.6330 -12.5116 -8.2232
-0.8006 18.1278 -0.7171 3.1631 -10.1991 0.4594 0.0000 0.0000 0.0000 -19.1680 0.5229 0.8454 0.2124 2.9672 8.1874 -0.2696 15.6729 -19.2597 0.4575 -4.3392 -12.0329 0.0000 0.0000 0.0000 18.5565 8.0838 -7.1942 -1.4089 -7.5076 21.2282 -0.2728 -9.1185 -17.0377 -0.4218 4.1686 -11.5515 -0.5549 0.4683 5.5605 0.5358 0.5807 5.3895 0.8423 0.2563 2.4229 -4.8899 -4.1682 -3.3661 -0.6527 -5.2358 6.7120 0.4432 -2.7457 2.8468 -0.0000 0.0000 0.0000 -67.3223 15.2853 63.7534 74.6294 -59.0882 -46.7294 -0.0000 0.0000 -74.8454 28.9026 40.1502 19.5949 -7.1250 0.0000 -0.0000 -11.9066 73.6288 -8.0974 -0.0000 0.0000 0.0000 81.4616 -25.3180 30.5606 -69.7598 58.3940 -42.5660 0.0000 -0.0000 -88.0518 -44.0430 14.1494 -13.3016 7.1250 -0.0000 -0.0000 -10.9303 -10.9222 -8.8276
-0.8072 18.1294 -0.7220 3.2499 -10.1998 0.4321 0.0000 0.0000 0.0000 -19.2405 0.5368 0.8837 0.2090 2.9432 8.1207 -0.2791 15.7057 -19.1968 0.4408 -4.2599 -11.8091 0.0000 0.0000 0.0000 18.4733 8.0246 -7.2271 -1.4085 -7.5068 21.2257 -0.2803 -9.0295 -17.0358 -0.4247 4.1826 -11.5911 -0.6512 0.4330 5.5371 0.4912 0.5311 5.4361 0.8526 0.2287 2.4849 -4.8896 -4.0848 -3.2311 -0.6047 -5.1364 6.6493 0.4660 -2.6936 2.7995 -0.0000 -0.0000 0.0000 -67.2234 14.3868 63.6892 75.8577 -59.2306 -47.7841 -0.0000 0.0000 -75.1035 29.8298 39.7206 20.1241 -7.1250 0.0000 -0.0000 -9.8522 73.5436 -6.6744 -0.0000 -0.0000 0.0000 81.0917 -24.7380 29.7570 -70.8670 58.5706 -43.5098 0.0000 -0.0000 -88.0476 -44.6540 14.7903 -14.1558 7.1250 -0.0000 -0.0000 -11.1817 -9.9194 -9.2715
-0.8138 18.1300 -0.7294 3.3082 -10.1742 0.4138 0.0000 0.0000 0.0000 -19.2747 0.5184 0.9093 0.2064 2.9250 8.0700 -0.2795 15.7090 -19.1972 0.4348 -4.2314 -11.7286 0.0000 0.0000 0.0000 18.4319 8.0318 -7.2290 -1.4079 -7.5052 21.2210 -0.2828 -9.0086 -17.0451 -0.4001 4.0609 -11.2480 -0.7113 0.3907 5.5692 0.4485 0.4732 5.4491 0.8440 0.1986 2.4816 -4.8972 -3.9996 -3.1245 -0.5599 -5.0312 6.6533 0.4879 -2.6400 2.7802 0.0000 0.0000 0.0000 -67.1213 13.4868 63.6246 77.2342 -59.3752 -48.9677 -0.0000 0.0000 -75.3456 30.5339 39.3264 20.4960 -7.1250 0.0000 -0.0000 -8.2113 73.4070 -5.5342 0.0000 0.0000 0.0000 80.6846 -24.1810 28.9887 -71.9579 58.7336 -44.4416 0.0000 -0.0000 -87.8773 -44.8892 14.9384 -14.4015 7.1250 -0.0000 -0.0000 -11.2973 -9.6589 -9.4319
-0.8212 18.1301 -0.7405 3.2790 -10.1439 0.4183 0.0000 0.0000 0.0000 -19.2103 0.4791 0.8890 0.2064 2.9252 8.0704 -0.2843 15.7435 -19.1961 0.4506 -4.3065 -11.9405 0.0000 0.0000 0.0000 18.5032 8.0938 -7.2051 -1.4045 -7.4965 21.1948 -0.2733 -9.1188 -17.0451 -0.3831 3.9747 -11.0056 -0.7336 0.3490 5.6354 0.4402 0.4166 5.4526 0.8495 0.1698 2.4495 -4.8662 -3.9203 -3.0421 -0.5511 -4.9322 6.6598 0.4908 -2.5898 2.7639 0.0000 -0.0000 0.0000 -67.0047 12.5034 63.5640 78.6194 -59.5049 -50.1605 -0.0000 0.0000 -75.5939 30.6184 38.9661 20.4142 -7.1250 0.0000 -0.0000 -7.6140 73.0823 -5.0768 0.0000 -0.0000 0.0000 80.1917 -23.5370 28.3454 -72.9782 58.8764 -45.3143 0.0000 -0.0000 -87.6279 -45.3725 15.3954 -15.0537 7.1250 -0.0000 -0.0000 -11.4996 -8.9182 -9.7823
-0.8300 18.1293 -0.7530 3.2212 -10.0834 0.4536 0.0000 0.0000 0.0000 -19.1076 0.3822 0.7968 0.2107 2.9555 8.1549 -0.2813 15.7167 -19.1878 0.4472 -4.2907 -11.8960 0.0000 0.0000 0.0000 18.5994 8.1126 -7.2404 -1.3995 -7.4837 21.1567 -0.2667 -9.1678 -17.0154 -0.3748 3.9321 -10.8859 -0.7305 0.3172 5.6676 0.4284 0.3744 5.4589 0.8369 0.1490 2.4390 -4.8057 -3.8628 -2.9022 -0.5165 -4.8701 6.5752 0.4975 -2.5549 2.7068 -0.0000 0.0000 0.0000 -66.8606 11.4082 63.6210 79.8465 -59.6068 -51.2185 -0.0000 0.0000 -75.7352 30.7831 38.7218 20.4378 -7.1250 0.0000 -0.0000 -7.0535 72.8980 -4.6738 -0.0000 0.0000 0.0000 79.6455 -22.8359 27.7787 -73.9447 59.0032 -46.1422 0.0000 -0.0000 -87.3843 -46.0495 16.0700 -16.0210 7.1250 -0.0000 -0.0000 -11.7678 -7.8222 -10.2817
-0.8373 18.1288 -0.7615 3.1618 -10.0586 0.4741 0.0000 0.0000 0.0000 -19.0125 0.3184 0.6916 0.2183 3.0080 8.3010 -0.2889 15.7435 -19.1387 0.4729 -4.4105 -12.2346 0.0000 0.0000 0.0000 18.6882 8.0980 -7.2589 -1.3939 -7.4693 21.1134 -0.2687 -9.1359 -17.0053 -0.3857 3.9880 -11.0428 -0.7095 0.2835 5.6309 0.4089 0.3306 5.5130 0.8069 0.1275 2.5168 -4.7615 -3.8021 -2.9078 -0.4551 -4.7953 6.5644 0.5124 -2.5146 2.7029 0.0000 0.0000 0.0000 -66.7453 10.1672 63.7135 80.8024 -59.6779 -52.0433 -0.0000 0.0000 -75.8298 31.2345 38.5872 20.7188 -7.1250 0.0000 -0.0000 -6.1803 72.9200 -4.0968 0.0000 0.0000 0.0000 79.0146 -22.0690 27.3255 -74.9813 59.1303 -47.0314 0.0000 -0.0000 -87.1780 -46.6169 16.7335 -16.9432 7.1250 -0.0000 -0.0000 -11.9634 -6.7624 -10.7136
-0.8440 18.1297 -0.7688 3.1332 -10.1056 0.4614 0.0000 0.0000 0.0000 -18.9427 0.3381 0.6080 0.2250 3.0533 8.4271 -0.2916 15.7485 -19.1139 0.4779 -4.4334 -12.2993 0.0000 0.0000 0.0000 18.7457 8.1473 -7.2344 -1.3910 -7.4618 21.0908 -0.2745 -9.1082 -17.0483 -0.3603 3.8561 -10.6723 -0.7229 0.2669 5.6158 0.3812 0.3083 5.5687 0.7869 0.1158 2.5836 -4.7533 -3.7453 -2.9332 -0.3945 -4.7224 6.5637 0.5326 -2.4763 2.7073 -0.0000 -0.0000 0.0000 -66.7031 8.8359 63.7542 81.5738 -59.7300 -52.7093 -0.0000 0.0000 -76.0172 31.7036 38.4425 21.0089 -7.1250 0.0000 -0.0000 -5.2644 72.9372 -3.4906 -0.0000 -0.0000 0.0000 78.2520 -21.3919 27.0244 -76.1469 59.2623 -48.0325 0.0000 -0.0000 -86.8933 -47.2043 17.3245 -17.8291 7.1250 -0.0000 -0.0000 -12.1808 -5.7798 -11.1531
-0.8488 18.1307 -0.7779 3.1337 -10.1411 0.4754 0.0000 0.0000 0.0000 -18.9127 0.3351 0.4948 0.2305 3.0902 8.5300 -0.2859 15.7218 -19.1394 0.4628 -4.3639 -12.1028 0.0000 0.0000 0.0000 18.7606 8.1314 -7.2789 -1.3892 -7.4573 21.0774 -0.2719 -9.0952 -17.0017 -0.3433 3.7649 -10.4160 -0.7640 0.2466 5.6166 0.3577 0.2803 5.5788 0.7867 0.1007 2.5942 -4.8056 -3.6904 -2.8880 -0.3351 -4.6525 6.5702 0.5639 -2.4411 2.7029 0.0000 -0.0000 0.0000 -66.6526 7.5531 63.8457 82.5032 -59.7866 -53.5123 -0.0000 0.0000 -76.1598 31.4648 38.2494 20.7493 -7.1250 0.0000 -0.0000 -5.4271 72.6618 -3.5661 0.0000 -0.0000 0.0000 77.3459 -20.7836 26.8509 -77.3919 59.3907 -49.1034 0.0000 -0.0000 -86.6140 -47.8763 17.9765 -18.8437 7.1250 -0.0000 -0.0000 -12.4274 -4.6733 -11.6568
